PathFileType	4	(X/Y/Z)	 New Session 102.trc
DataRate	CameraRate	NumFrames	NumMarkers	Units	OrigDataRate	OrigDataStartFrame	OrigNumFrames
100	100	24	14	m	100	114	302
Frame#	Time	C7			T8			IJ			PX			AA			AC			AI			TS			SC			GH			LE			ME			US			RS			
		X1	Y1	Z1	X2	Y2	Z2	X3	Y3	Z3	X4	Y4	Z4	X5	Y5	Z5	X6	Y6	Z6	X7	Y7	Z7	X8	Y8	Z8	X9	Y9	Z9	X10	Y10	Z10	X11	Y11	Z11	X12	Y12	Z12	X13	Y13	Z13	X14	Y14	Z14	
114	1.1400	0.023999	0.104396	0.157740	0.029673	-0.110593	0.229921	-0.000614	0.000418	-0.004781	0.000249	-0.141940	-0.071924	0.222368	0.008868	0.134529	0.168872	0.050252	0.065652	0.108210	0.027955	0.196007	0.112346	-0.090685	0.226205	0.024181	0.008756	-0.000798	0.231723	0.021820	0.093961	0.320126	-0.246636	0.004083	0.246584	-0.298535	0.040210	0.398169	-0.489614	-0.100296	0.324935	-0.498224	-0.135334	
115	1.1500	0.023999	0.104398	0.157735	0.029655	-0.110605	0.229885	-0.000613	0.000418	-0.004805	0.000266	-0.141918	-0.071982	0.222368	0.008893	0.134497	0.168876	0.050274	0.065633	0.108215	0.027958	0.195991	0.112362	-0.090677	0.226191	0.024189	0.008764	-0.000810	0.231732	0.021846	0.093939	0.320145	-0.246603	0.004014	0.246604	-0.298510	0.040143	0.398206	-0.489557	-0.100381	0.324949	-0.498186	-0.135405	
116	1.1600	0.024002	0.104387	0.157737	0.029645	-0.110630	0.229856	-0.000612	0.000420	-0.004830	0.000285	-0.141894	-0.072032	0.222359	0.008888	0.134466	0.168888	0.050280	0.065626	0.108227	0.027939	0.195982	0.112377	-0.090670	0.226178	0.024203	0.008764	-0.000817	0.231745	0.021855	0.093926	0.320145	-0.246582	0.003935	0.246624	-0.298500	0.040077	0.398244	-0.489518	-0.100462	0.324959	-0.498154	-0.135473	
117	1.1700	0.024007	0.104373	0.157744	0.029660	-0.110656	0.229849	-0.000611	0.000422	-0.004855	0.000297	-0.141861	-0.072072	0.222347	0.008864	0.134434	0.168905	0.050276	0.065623	0.108243	0.027912	0.195977	0.112391	-0.090665	0.226165	0.024214	0.008769	-0.000822	0.231757	0.021856	0.093921	0.320121	-0.246570	0.003851	0.246643	-0.298497	0.040014	0.398279	-0.489489	-0.100538	0.324966	-0.498122	-0.135539	
118	1.1800	0.024013	0.104362	0.157750	0.029697	-0.110675	0.229858	-0.000609	0.000425	-0.004881	0.000302	-0.141819	-0.072108	0.222339	0.008844	0.134406	0.168919	0.050279	0.065614	0.108259	0.027895	0.195968	0.112405	-0.090659	0.226152	0.024219	0.008791	-0.000831	0.231769	0.021861	0.093918	0.320082	-0.246558	0.003767	0.246659	-0.298494	0.039958	0.398306	-0.489459	-0.100607	0.324973	-0.498088	-0.135605	
119	1.1900	0.024017	0.104359	0.157751	0.029739	-0.110683	0.229865	-0.000607	0.000428	-0.004907	0.000298	-0.141775	-0.072147	0.222334	0.008844	0.134384	0.168922	0.050299	0.065591	0.108273	0.027896	0.195952	0.112421	-0.090654	0.226139	0.024223	0.008832	-0.000846	0.231780	0.021881	0.093911	0.320044	-0.246538	0.003691	0.246674	-0.298480	0.039907	0.398328	-0.489419	-0.100674	0.324983	-0.498050	-0.135669	
120	1.2000	0.024019	0.104365	0.157749	0.029771	-0.110677	0.229856	-0.000605	0.000432	-0.004934	0.000293	-0.141745	-0.072180	0.222335	0.008867	0.134364	0.168919	0.050340	0.065564	0.108283	0.027916	0.195936	0.112437	-0.090649	0.226126	0.024231	0.008881	-0.000869	0.231791	0.021919	0.093897	0.320021	-0.246506	0.003627	0.246685	-0.298455	0.039858	0.398353	-0.489365	-0.100741	0.324999	-0.498008	-0.135730	
121	1.2100	0.024020	0.104374	0.157743	0.029784	-0.110662	0.229832	-0.000602	0.000435	-0.004960	0.000301	-0.141742	-0.072196	0.222346	0.008903	0.134345	0.168919	0.050388	0.065548	0.108287	0.027944	0.195926	0.112454	-0.090642	0.226113	0.024245	0.008914	-0.000895	0.231799	0.021964	0.093875	0.320016	-0.246467	0.003577	0.246691	-0.298424	0.039810	0.398383	-0.489302	-0.100810	0.325020	-0.497964	-0.135790	
122	1.2200	0.024024	0.104380	0.157733	0.029784	-0.110643	0.229804	-0.000598	0.000439	-0.004986	0.000326	-0.141760	-0.072196	0.222367	0.008939	0.134329	0.168930	0.050424	0.065543	0.108289	0.027970	0.195926	0.112472	-0.090636	0.226101	0.024263	0.008914	-0.000914	0.231807	0.022005	0.093850	0.320027	-0.246426	0.003535	0.246690	-0.298399	0.039762	0.398420	-0.489240	-0.100878	0.325048	-0.497919	-0.135847	
123	1.2300	0.024035	0.104379	0.157722	0.029784	-0.110624	0.229790	-0.000593	0.000444	-0.005012	0.000361	-0.141781	-0.072195	0.222397	0.008971	0.134321	0.168949	0.050441	0.065541	0.108291	0.027987	0.195928	0.112491	-0.090629	0.226088	0.024276	0.008880	-0.000915	0.231822	0.022035	0.093829	0.320050	-0.246391	0.003499	0.246688	-0.298387	0.039713	0.398461	-0.489187	-0.100942	0.325079	-0.497876	-0.135903	
124	1.2400	0.024051	0.104373	0.157713	0.029795	-0.110612	0.229791	-0.000588	0.000448	-0.005037	0.000393	-0.141789	-0.072205	0.222429	0.009000	0.134320	0.168965	0.050443	0.065537	0.108297	0.027995	0.195922	0.112510	-0.090621	0.226076	0.024276	0.008831	-0.000906	0.231842	0.022050	0.093821	0.320080	-0.246365	0.003465	0.246695	-0.298388	0.039658	0.398501	-0.489147	-0.101004	0.325112	-0.497835	-0.135956	
125	1.2500	0.024067	0.104368	0.157705	0.029817	-0.110614	0.229797	-0.000582	0.000452	-0.005062	0.000413	-0.141779	-0.072229	0.222448	0.009022	0.134316	0.168974	0.050440	0.065527	0.108307	0.027997	0.195904	0.112530	-0.090612	0.226065	0.024271	0.008802	-0.000909	0.231866	0.022053	0.093822	0.320115	-0.246347	0.003429	0.246719	-0.298397	0.039596	0.398534	-0.489118	-0.101063	0.325143	-0.497798	-0.136008	
126	1.2600	0.024080	0.104367	0.157696	0.029840	-0.110630	0.229796	-0.000576	0.000456	-0.005086	0.000414	-0.141757	-0.072262	0.222445	0.009029	0.134297	0.168976	0.050438	0.065507	0.108321	0.027995	0.195875	0.112550	-0.090604	0.226053	0.024274	0.008811	-0.000939	0.231884	0.022055	0.093823	0.320151	-0.246333	0.003392	0.246758	-0.298404	0.039529	0.398562	-0.489093	-0.101122	0.325173	-0.497764	-0.136058	
127	1.2700	0.024088	0.104372	0.157683	0.029862	-0.110650	0.229783	-0.000569	0.000461	-0.005108	0.000404	-0.141734	-0.072297	0.222434	0.009029	0.134263	0.168978	0.050435	0.065474	0.108337	0.027995	0.195844	0.112571	-0.090595	0.226041	0.024284	0.008842	-0.000990	0.231887	0.022061	0.093814	0.320185	-0.246320	0.003353	0.246807	-0.298398	0.039465	0.398587	-0.489066	-0.101181	0.325201	-0.497731	-0.136107	
128	1.2800	0.024093	0.104378	0.157669	0.029882	-0.110662	0.229763	-0.000561	0.000466	-0.005129	0.000397	-0.141717	-0.072329	0.222434	0.009032	0.134225	0.168981	0.050434	0.065435	0.108353	0.027999	0.195815	0.112592	-0.090586	0.226029	0.024303	0.008869	-0.001040	0.231881	0.022077	0.093793	0.320218	-0.246301	0.003311	0.246857	-0.298372	0.039408	0.398613	-0.489034	-0.101238	0.325227	-0.497698	-0.136153	
129	1.2900	0.024098	0.104383	0.157656	0.029901	-0.110656	0.229747	-0.000553	0.000471	-0.005148	0.000407	-0.141710	-0.072351	0.222451	0.009045	0.134191	0.168984	0.050438	0.065401	0.108370	0.028009	0.195792	0.112614	-0.090578	0.226016	0.024327	0.008882	-0.001072	0.231875	0.022101	0.093765	0.320248	-0.246274	0.003267	0.246901	-0.298325	0.039362	0.398640	-0.488997	-0.101295	0.325254	-0.497664	-0.136198	
130	1.3000	0.024104	0.104390	0.157646	0.029921	-0.110632	0.229742	-0.000544	0.000476	-0.005165	0.000432	-0.141710	-0.072365	0.222479	0.009068	0.134163	0.168987	0.050454	0.065380	0.108386	0.028022	0.195777	0.112637	-0.090570	0.226002	0.024350	0.008883	-0.001083	0.231882	0.022132	0.093735	0.320274	-0.246236	0.003220	0.246937	-0.298264	0.039323	0.398672	-0.488955	-0.101347	0.325281	-0.497629	-0.136239	
131	1.3100	0.024112	0.104403	0.157640	0.029940	-0.110600	0.229744	-0.000535	0.000482	-0.005180	0.000462	-0.141707	-0.072374	0.222512	0.009097	0.134137	0.168993	0.050481	0.065366	0.108401	0.028040	0.195768	0.112661	-0.090563	0.225988	0.024358	0.008883	-0.001081	0.231906	0.022168	0.093710	0.320295	-0.246188	0.003171	0.246964	-0.298203	0.039287	0.398711	-0.488909	-0.101394	0.325310	-0.497594	-0.136276	
132	1.3200	0.024120	0.104421	0.157636	0.029958	-0.110572	0.229746	-0.000523	0.000488	-0.005192	0.000483	-0.141695	-0.072387	0.222544	0.009132	0.134111	0.169002	0.050516	0.065353	0.108414	0.028062	0.195765	0.112687	-0.090558	0.225974	0.024345	0.008889	-0.001077	0.231937	0.022205	0.093690	0.320313	-0.246134	0.003122	0.246985	-0.298151	0.039247	0.398762	-0.488860	-0.101437	0.325340	-0.497560	-0.136310	
133	1.3300	0.024128	0.104439	0.157637	0.029973	-0.110557	0.229744	-0.000511	0.000493	-0.005202	0.000492	-0.141679	-0.072408	0.222574	0.009170	0.134085	0.169011	0.050554	0.065335	0.108429	0.028083	0.195762	0.112714	-0.090554	0.225961	0.024322	0.008896	-0.001083	0.231962	0.022239	0.093673	0.320331	-0.246081	0.003073	0.247005	-0.298109	0.039201	0.398830	-0.488808	-0.101479	0.325373	-0.497531	-0.136341	
134	1.3400	0.024135	0.104448	0.157643	0.029987	-0.110558	0.229737	-0.000496	0.000499	-0.005209	0.000501	-0.141668	-0.072435	0.222601	0.009202	0.134063	0.169019	0.050588	0.065316	0.108451	0.028097	0.195758	0.112743	-0.090551	0.225948	0.024314	0.008909	-0.001100	0.231979	0.022269	0.093659	0.320355	-0.246035	0.003024	0.247027	-0.298078	0.039150	0.398921	-0.488755	-0.101518	0.325411	-0.497506	-0.136371	
135	1.3500	0.024145	0.104445	0.157651	0.030002	-0.110572	0.229728	-0.000480	0.000504	-0.005213	0.000522	-0.141666	-0.072459	0.222619	0.009215	0.134047	0.169029	0.050612	0.065304	0.108482	0.028094	0.195754	0.112774	-0.090550	0.225937	0.024337	0.008929	-0.001120	0.231997	0.022293	0.093652	0.320388	-0.246003	0.002975	0.247052	-0.298056	0.039102	0.399032	-0.488706	-0.101555	0.325453	-0.497483	-0.136402	
136	1.3600	0.024159	0.104429	0.157658	0.030021	-0.110598	0.229725	-0.000462	0.000510	-0.005216	0.000556	-0.141671	-0.072471	0.222627	0.009206	0.134034	0.169045	0.050623	0.065300	0.108517	0.028075	0.195750	0.112807	-0.090550	0.225928	0.024374	0.008944	-0.001129	0.232021	0.022309	0.093653	0.320430	-0.245985	0.002926	0.247077	-0.298042	0.039058	0.399147	-0.488666	-0.101587	0.325500	-0.497462	-0.136435	
137	1.3700	0.024181	0.104403	0.157663	0.030046	-0.110630	0.229728	-0.000441	0.000515	-0.005216	0.000596	-0.141678	-0.072465	0.222636	0.009185	0.134023	0.169067	0.050621	0.065300	0.108553	0.028047	0.195748	0.112842	-0.090551	0.225920	0.024410	0.008944	-0.001124	0.232047	0.022313	0.093657	0.320475	-0.245977	0.002881	0.247102	-0.298035	0.039017	0.399244	-0.488636	-0.101614	0.325552	-0.497439	-0.136471	
